<svg xmlns="http://www.w3.org/2000/svg" version="1.1" viewBox="-5.0 -10.0 110.0 135.0">
 <path d="m41.809 56.777 31.246-31.246c0.39062-0.39062 1.0234-0.39062 1.4141 0s0.39062 1.0234 0 1.4141l-31.246 31.246 4.4922 4.4922 4.6211-4.625 26.082-26.082c2.9102-3.418 5.168-6.8828 6.7656-10.391 1.418-3.1133 2.3203-6.2734 2.7031-9.4727-3.1992 0.38281-6.3555 1.2852-9.4727 2.7031-3.5078 1.5977-6.9727 3.8516-10.391 6.7656l-30.707 30.707zm10.883 13.707-2.2891 2.2891c-0.62891 0.62891-1.457 0.94141-2.2891 0.94141s-1.6602-0.3125-2.2891-0.94141l-18.605-18.605c-0.62891-0.62891-0.94141-1.457-0.94141-2.2891 0-0.83203 0.3125-1.6602 0.94141-2.2891l2.2891-2.2891zm-22.469-25.297 5.6836 5.6836 4.625-4.6211 26.086-26.086h0.003906c0.019531-0.019531 0.035156-0.035156 0.058594-0.050781 3.5742-3.0547 7.2148-5.4258 10.914-7.1094 3.7188-1.6914 7.4922-2.6914 11.316-3h0.019532c0.050781-0.003906 0.10156-0.003906 0.15625 0 0.55078 0.042969 0.96094 0.52344 0.91797 1.0742-0.30469 3.832-1.3047 7.6133-3 11.336-1.6758 3.6797-4.0273 7.2969-7.0586 10.855-0.03125 0.042969-0.0625 0.082031-0.10156 0.11719l-15.914 15.906-10.18 10.18-4.6211 4.625 5.6836 5.6836c0.39062 0.39062 0.39062 1.0234 0 1.4141l-2.9961 2.9922c-1.0195 1.0195-2.3633 1.5273-3.7031 1.5273-1.3398 0-2.6836-0.50781-3.7031-1.5273l-4.9766-4.9766-11.047 11.043-0.003907-0.003906-0.003906 0.003906c-0.49609 0.49609-0.89453 1.0117-1.207 1.5625-0.3125 0.55469-0.54688 1.1602-0.71875 1.8438-0.17969 0.72266-0.45703 1.4297-0.83594 2.0938-0.35156 0.62109-0.78906 1.2031-1.3086 1.7344-0.019532 0.019531-0.035156 0.039063-0.054688 0.058594-1.6328 1.6289-3.7695 2.4453-5.9062 2.4453-2.1367 0-4.2734-0.81641-5.9062-2.4453-1.6328-1.6289-2.4453-3.7695-2.4453-5.9062s0.81641-4.2734 2.4453-5.9062c0.54297-0.54297 1.1484-0.99609 1.7969-1.3633 0.66406-0.375 1.3711-0.65625 2.0938-0.83594 0.68359-0.16797 1.293-0.40625 1.8438-0.71875 0.53125-0.30078 1.0312-0.68359 1.5156-1.1602 0.015625-0.019531 0.03125-0.035156 0.046875-0.050781l11.043-11.043-4.9766-4.9766c-1.0195-1.0195-1.5273-2.3633-1.5273-3.7031 0-1.3398 0.50781-2.6836 1.5273-3.7031l2.9961-2.9961c0.39844-0.38672 1.0312-0.38672 1.4219 0.003906zm7.793 22.609-3.2539 3.2539-5.8125-5.8125 3.2539-3.2578zm-10.48-1.1445-2.9141 2.9141 5.8125 5.8125 2.9141-2.9141zm-4.332 4.332-2.0469 2.0469c-0.019531 0.019531-0.039062 0.039062-0.058594 0.054688-0.28125 0.27734-0.56641 0.52734-0.86719 0.76172l5.9219 5.9219c0.24609-0.32031 0.51953-0.625 0.81641-0.92188l0.003906-0.007812 2.0469-2.0469zm-4.7305 3.9258c-0.52344 0.23828-1.0703 0.42578-1.6562 0.57031-0.55078 0.13672-1.0859 0.34766-1.5859 0.63281-0.48438 0.27344-0.94531 0.62109-1.3672 1.043-1.2383 1.2383-1.8594 2.8672-1.8594 4.4922s0.62109 3.2539 1.8594 4.4922 2.8672 1.8594 4.4922 1.8594 3.25-0.62109 4.4922-1.8594l0.050782-0.046875c0.39453-0.40625 0.72656-0.84766 0.99219-1.3164 0.28516-0.50391 0.49609-1.0391 0.63281-1.5859 0.14453-0.58594 0.33594-1.1367 0.57031-1.6562z" fill-rule="evenodd"/>
</svg>